<?xml version="1.0" encoding="utf-8"?>
<!-- Generator: Adobe Illustrator 27.7.0, SVG Export Plug-In . SVG Version: 6.00 Build 0)  -->
<svg version="1.1" id="Layer_1" xmlns="http://www.w3.org/2000/svg" xmlns:xlink="http://www.w3.org/1999/xlink" x="0px" y="0px"
	 viewBox="0 0 566.93 566.93" style="enable-background:new 0 0 566.93 566.93;" xml:space="preserve">
<style type="text/css">
	.st0{fill:#30A2E5;}
</style>
<g>
	<path class="st0" d="M-274.53,221.82c5.25,0,9.76-3,11.95-7.39c0.93-1.8,1.44-3.84,1.44-6.04V177.4c0-2.16-0.51-4.2-1.44-6.01
		c-0.63-1.29-1.47-2.46-2.46-3.45c-2.43-2.43-5.8-3.93-9.49-3.93c-5.22,0-9.76,3-11.95,7.39c-0.93,1.8-1.44,3.84-1.44,6.01v30.99
		c0,2.19,0.51,4.23,1.44,6.04C-284.29,218.81-279.76,221.82-274.53,221.82z"/>
	<path class="st0" d="M-202.4,221.82c5.07,0,9.52-2.85,11.77-7.06c0.06-0.09,0.12-0.21,0.18-0.33c0.93-1.8,1.44-3.84,1.44-6.04
		V177.4c0-2.1-0.48-4.05-1.35-5.8v-0.03c-0.03-0.06-0.06-0.12-0.09-0.18c-0.63-1.29-1.5-2.46-2.49-3.45
		c-2.4-2.43-5.77-3.93-9.46-3.93c-5.25,0-9.79,3-11.98,7.39c-0.93,1.8-1.44,3.84-1.44,6.01v30.99c0,2.19,0.51,4.23,1.44,6.04
		C-212.19,218.81-207.66,221.82-202.4,221.82z"/>
	<path class="st0" d="M-238.47,236.14c7.39,0,13.39-6.01,13.39-13.39v-8.32V171.4v-8.32c0-3.69-1.5-7.06-3.93-9.49
		c-2.43-2.4-5.77-3.9-9.46-3.9c-7.42,0-13.39,5.98-13.39,13.39v8.32v43.03v8.32C-251.86,230.13-245.89,236.14-238.47,236.14z"/>
	<path class="st0" d="M-119.14,218.6c-0.66-1.65-1.5-3.18-2.55-4.59c-3.87-5.43-10.27-9.01-17.48-9.01
		c-11.92,0-21.56,9.67-21.56,21.56c0,3.69,0.93,7.15,2.52,10.18c0.06,0.06,0.09,0.15,0.15,0.24c0.33,0.63,0.66,1.26,0.99,1.92v0.03
		c2.94,6.22,4.47,13.18,4.11,20.6c-1.08,23.12-21.02,40.93-44.2,40.93H-409.9c-0.36,0.03-0.75,0.03-1.11,0.03s-0.75,0-1.11-0.03
		c-23.24-0.57-41.92-19.61-41.92-43v-0.03c0-23.75,19.25-43,43-43h20.21c12.83,0,23-11.22,21.32-24.35
		c-1.39-10.84-11.14-18.69-22.07-18.69l-19.42,0c-15.67,0-30.36,4.2-43.03,11.56c-13.06,7.51-23.96,18.41-31.47,31.47
		c-7.36,12.64-11.56,27.33-11.56,43v0.03c0,15.67,4.2,30.36,11.56,43c7.51,13.06,18.41,23.96,31.47,31.47
		c12.67,7.36,27.36,11.56,43.03,11.56h193.59c9.76,0,16.82,3.75,21.5,10.15c5.77,7.78,8.08,19.4,7.6,32.88
		c-0.24,6.43-1.11,13.24-2.52,20.3c-1.59,7.78,7.51,13.54,13.72,8.56c9.31-7.45,16.49-17.42,20.51-28.86
		c2.43-6.73,3.72-13.99,3.72-21.53s-1.29-14.77-3.69-21.5c-0.08-0.24-0.17-0.48-0.25-0.72c-1.47-4.09,0.16-8.56,3.88-10.8
		c0.02-0.01,0.05-0.03,0.07-0.04c13.06-7.51,23.96-18.41,31.47-31.47c7.36-12.67,11.56-27.36,11.56-43.03
		C-109.86,243.44-113.19,230.25-119.14,218.6z"/>
	<path class="st0" d="M-346.66,206.32c7.42,0,13.42-6.01,13.42-13.42c0-7.39-6.01-13.39-13.42-13.39c-7.39,0-13.39,6.01-13.39,13.39
		C-360.05,200.32-354.05,206.32-346.66,206.32z"/>
	<path class="st0" d="M-166.31,206.32c6.79,0,12.4-5.04,13.27-11.62c0-0.09,0.03-0.21,0.03-0.3c0.06-0.51,0.09-0.99,0.09-1.5
		c0-0.54-0.03-1.05-0.09-1.56c0,0,0,0,0-0.03c-0.78-6.64-6.46-11.8-13.3-11.8c-7.42,0-13.42,6.01-13.42,13.39
		C-179.73,200.32-173.73,206.32-166.31,206.32z"/>
	<path class="st0" d="M-310.6,226.13c7.42,0,13.42-6.01,13.42-13.42l0.06-39.79c0-3.69-1.5-7.03-3.93-9.46
		c-2.43-2.43-5.77-3.93-9.49-3.93c-7.39,0-13.39,6.01-13.39,13.39l-0.06,39.79C-323.99,220.12-317.98,226.13-310.6,226.13z"/>
</g>
<g>
	<path class="st0" d="M466.46,216.69c-0.03-0.03-0.06-0.09-0.06-0.12c-0.18-0.3-0.33-0.54-0.48-0.84
		c-3.72-6.41-10.67-10.7-18.61-10.7c-11.87,0-21.49,9.62-21.49,21.52c0,3.72,0.93,7.19,2.58,10.25c0.09,0.12,0.18,0.27,0.24,0.42
		c2.94,5.36,4.73,11.42,5.06,17.92c1.17,24.66-18.49,45.04-42.91,45.04H177.39c-23.1,0-43-17.74-44.11-40.81
		c-1.17-24.66,18.46-45.07,42.85-45.07h20.2c11.84,0,21.46-9.62,21.46-21.46c0-11.87-9.62-21.49-21.46-21.49h-20.17v0.03
		c-15.64,0-30.3,4.2-42.94,11.54c-13.01,7.52-23.85,18.37-31.4,31.37c-6.41,10.91-10.46,23.34-11.54,36.62v14.56
		c0.99,12.53,4.67,24.27,10.43,34.7c3.18,5.81,7.01,11.21,11.42,16.09c6.02,6.8,13.15,12.62,21.1,17.2c7.64,4.47,16,7.73,24.9,9.62
		c0.66,0.15,1.35,0.3,2.04,0.42c12.98,2.18,20.5,14.6,22.71,26.91c2.13,11.87,0.6,25.2-1.86,36.92c-1.56,7.43,7.13,12.83,13.12,8.18
		c9.68-7.49,17.14-17.71,21.31-29.49c2.25-6.38,3.54-13.21,3.63-20.35v-2.43c-0.18-11,8.36-20.17,19.36-20.17H390.8
		c15.64,0,30.3-4.2,42.94-11.54c13.01-7.49,23.88-18.37,31.37-31.37c7.34-12.65,11.54-27.3,11.54-42.94
		C476.65,242.58,472.97,228.77,466.46,216.69z"/>
	<path class="st0" d="M240.4,206.2c7.4,0,13.39-5.99,13.39-13.39c0-7.37-5.99-13.36-13.39-13.36c-7.37,0-13.36,5.99-13.36,13.36
		C227.04,200.21,233.03,206.2,240.4,206.2z"/>
	<path class="st0" d="M420.38,206.2c6.77,0,12.38-5.03,13.24-11.6c0-0.09,0.03-0.21,0.03-0.3c0.06-0.51,0.09-0.99,0.09-1.5
		c0-0.54-0.03-1.05-0.09-1.56c0,0,0,0,0-0.03c-0.78-6.62-6.44-11.78-13.27-11.78c-7.4,0-13.39,5.99-13.39,13.36
		C406.98,200.21,412.98,206.2,420.38,206.2z"/>
	<path class="st0" d="M276.39,226.13c7.4,0,13.39-5.99,13.39-13.39v-39.85c0-3.69-1.5-7.01-3.93-9.44
		c-2.43-2.43-5.75-3.93-9.47-3.93c-7.37,0-13.36,5.99-13.36,13.36v39.85C263.03,220.13,269.02,226.13,276.39,226.13z"/>
	<path class="st0" d="M312.38,221.67c5.24,0,9.74-3,11.93-7.37c0.93-1.8,1.44-3.84,1.44-6.02v-30.92c0-2.16-0.51-4.2-1.44-5.99
		c-0.63-1.29-1.47-2.46-2.46-3.45c-2.43-2.43-5.78-3.93-9.47-3.93c-5.21,0-9.74,3-11.93,7.37c-0.93,1.8-1.44,3.84-1.44,5.99v30.92
		c0,2.19,0.51,4.23,1.44,6.02C302.64,218.67,307.17,221.67,312.38,221.67z"/>
	<path class="st0" d="M384.36,221.67c5,0,9.41-2.79,11.66-6.92c0.03-0.03,0.06-0.09,0.09-0.12c0.06-0.09,0.12-0.21,0.18-0.33
		c0.93-1.8,1.44-3.84,1.44-6.02v-30.92c0-2.1-0.48-4.05-1.35-5.78v-0.03c-0.03-0.06-0.06-0.12-0.09-0.18
		c-0.63-1.29-1.5-2.46-2.49-3.45c-2.4-2.43-5.75-3.93-9.44-3.93c-5.24,0-9.77,3-11.96,7.37c-0.93,1.8-1.44,3.84-1.44,5.99v30.92
		c0,2.19,0.51,4.23,1.44,6.02C374.59,218.67,379.11,221.67,384.36,221.67z"/>
	<path class="st0" d="M348.37,235.96c7.37,0,13.36-5.99,13.36-13.36v-8.3v-42.94v-8.3c0-3.69-1.5-7.04-3.93-9.47
		c-2.43-2.4-5.75-3.9-9.44-3.9c-7.4,0-13.36,5.96-13.36,13.36v8.3v42.94v8.3C335.01,229.97,340.97,235.96,348.37,235.96z"/>
</g>
</svg>
